<svg width="1900" height="783" viewBox="0 0 1900 783" fill="none" xmlns="http://www.w3.org/2000/svg">
    <rect width="1900" height="783" />
    <g clip-path="url(#clip0_570_199)">
        <path fill-rule="evenodd" clip-rule="evenodd" d="M441 703C607.238 703 742 568.238 742 402C742 235.762 607.238 101 441 101C274.762 101 140 235.762 140 402C140 523.744 212.278 628.607 316.264 676.019L297.76 544.354C290.365 491.738 327.217 442.429 380.176 434.986L471.273 422.183L471.272 422.179L514.386 416.12C522.348 415.001 527.901 407.681 526.79 399.77L522.739 370.947L517.96 371.619C515.306 371.992 512.854 370.157 512.483 367.52L510.456 353.096C510.085 350.459 511.937 348.019 514.591 347.646L519.374 346.974L518.025 337.375L518.026 337.385L515.996 322.94C514.89 315.074 507.61 309.586 499.7 310.625L475.627 314.008L476.303 318.823C476.674 321.459 474.823 323.899 472.169 324.272L457.807 326.291C455.153 326.664 452.701 324.829 452.33 322.192L451.654 317.377L365.351 329.506C312.392 336.949 263.377 299.706 255.983 247.09L438.177 221.486L437.5 216.671C437.13 214.034 438.981 211.594 441.635 211.221L455.997 209.203C458.651 208.83 461.103 210.665 461.473 213.302L462.15 218.117L500.506 212.726C553.465 205.283 602.481 242.524 609.875 295.14L615.266 333.497L620.049 332.825C622.703 332.452 625.155 334.287 625.526 336.924L627.553 351.348C627.924 353.985 626.072 356.425 623.418 356.798L618.635 357.47L624.699 400.62C632.094 453.236 595.244 502.545 542.285 509.989L407.903 528.875C400.087 530.063 394.64 537.238 395.64 545.027L417.183 698.314C417.362 699.59 417.373 700.851 417.233 702.075C425.075 702.688 433.001 703 441 703Z" fill="#FFC121" />
    </g>
    <path d="M950.383 334.161C957.478 324.175 967.201 315.898 979.552 309.328C992.165 302.496 1006.49 299.079 1022.52 299.079C1041.17 299.079 1057.99 303.678 1072.97 312.876C1088.21 322.073 1100.17 335.212 1108.84 352.293C1117.78 369.111 1122.24 388.689 1122.24 411.025C1122.24 433.362 1117.78 453.202 1108.84 470.546C1100.17 487.627 1088.21 500.897 1072.97 510.357C1057.99 519.817 1041.17 524.548 1022.52 524.548C1006.49 524.548 992.297 521.263 979.946 514.693C967.858 508.124 958.003 499.846 950.383 489.86V625.062H895.198V302.627H950.383V334.161ZM1065.88 411.025C1065.88 397.886 1063.12 386.586 1057.6 377.126C1052.34 367.403 1045.25 360.045 1036.31 355.052C1027.64 350.059 1018.18 347.563 1007.93 347.563C997.946 347.563 988.486 350.191 979.552 355.446C970.88 360.439 963.785 367.797 958.266 377.52C953.01 387.243 950.383 398.674 950.383 411.813C950.383 424.953 953.01 436.384 958.266 446.107C963.785 455.83 970.88 463.319 979.552 468.575C988.486 473.568 997.946 476.064 1007.93 476.064C1018.18 476.064 1027.64 473.436 1036.31 468.181C1045.25 462.925 1052.34 455.436 1057.6 445.713C1063.12 435.99 1065.88 424.427 1065.88 411.025ZM1190.33 276.611C1180.61 276.611 1172.46 273.589 1165.89 267.545C1159.58 261.239 1156.43 253.486 1156.43 244.289C1156.43 235.092 1159.58 227.471 1165.89 221.427C1172.46 215.12 1180.61 211.967 1190.33 211.967C1200.05 211.967 1208.07 215.12 1214.38 221.427C1220.94 227.471 1224.23 235.092 1224.23 244.289C1224.23 253.486 1220.94 261.239 1214.38 267.545C1208.07 273.589 1200.05 276.611 1190.33 276.611ZM1217.53 302.627V521H1162.34V302.627H1217.53ZM1327.24 334.161C1334.33 324.175 1344.05 315.898 1356.4 309.328C1369.02 302.496 1383.34 299.079 1399.37 299.079C1418.03 299.079 1434.85 303.678 1449.82 312.876C1465.07 322.073 1477.02 335.212 1485.69 352.293C1494.63 369.111 1499.1 388.689 1499.1 411.025C1499.1 433.362 1494.63 453.202 1485.69 470.546C1477.02 487.627 1465.07 500.897 1449.82 510.357C1434.85 519.817 1418.03 524.548 1399.37 524.548C1383.34 524.548 1369.15 521.263 1356.8 514.693C1344.71 508.124 1334.86 499.846 1327.24 489.86V625.062H1272.05V302.627H1327.24V334.161ZM1442.73 411.025C1442.73 397.886 1439.97 386.586 1434.45 377.126C1429.2 367.403 1422.1 360.045 1413.17 355.052C1404.49 350.059 1395.03 347.563 1384.79 347.563C1374.8 347.563 1365.34 350.191 1356.4 355.446C1347.73 360.439 1340.64 367.797 1335.12 377.52C1329.86 387.243 1327.24 398.674 1327.24 411.813C1327.24 424.953 1329.86 436.384 1335.12 446.107C1340.64 455.83 1347.73 463.319 1356.4 468.575C1365.34 473.568 1374.8 476.064 1384.79 476.064C1395.03 476.064 1404.49 473.436 1413.17 468.181C1422.1 462.925 1429.2 455.436 1434.45 445.713C1439.97 435.99 1442.73 424.427 1442.73 411.025ZM1742.2 407.083C1742.2 414.967 1741.67 422.062 1740.62 428.369H1580.98C1582.29 444.136 1587.81 456.487 1597.54 465.421C1607.26 474.356 1619.21 478.823 1633.41 478.823C1653.9 478.823 1668.49 470.02 1677.16 452.414H1736.68C1730.37 473.436 1718.28 490.78 1700.41 504.445C1682.55 517.847 1660.6 524.548 1634.59 524.548C1613.56 524.548 1594.64 519.949 1577.83 510.751C1561.27 501.291 1548.26 488.021 1538.8 470.94C1529.61 453.859 1525.01 434.15 1525.01 411.813C1525.01 389.214 1529.61 369.374 1538.8 352.293C1548 335.212 1560.88 322.073 1577.43 312.876C1593.99 303.678 1613.04 299.079 1634.59 299.079C1655.35 299.079 1673.87 303.547 1690.17 312.481C1706.72 321.416 1719.47 334.161 1728.4 350.716C1737.6 367.009 1742.2 385.798 1742.2 407.083ZM1685.04 391.316C1684.78 377.126 1679.65 365.826 1669.67 357.417C1659.68 348.745 1647.46 344.41 1633.01 344.41C1619.35 344.41 1607.78 348.614 1598.32 357.023C1589.13 365.169 1583.48 376.6 1581.37 391.316H1685.04Z" fill="#1A1A1A" />
    <defs>
        <clipPath id="clip0_570_199">
            <rect width="602" height="602" fill="white" transform="translate(140 101)" />
        </clipPath>
    </defs>
</svg>